<svg width="16" height="16" viewBox="0 0 16 16" fill="none" xmlns="http://www.w3.org/2000/svg">
<path d="M9.99998 13.7143C9.99998 12.7675 9.23247 12 8.2857 12C7.33892 12 6.57141 12.7675 6.57141 13.7143C6.57141 14.6611 7.33892 15.4286 8.2857 15.4286C9.23247 15.4286 9.99998 14.6611 9.99998 13.7143Z" fill="#332927"/>
<path d="M9.99998 2.28571C9.99998 1.33894 9.23247 0.571428 8.2857 0.571428C7.33892 0.571428 6.57141 1.33894 6.57141 2.28571C6.57141 3.23249 7.33892 4 8.2857 4C9.23247 4 9.99998 3.23249 9.99998 2.28571Z" fill="#332927"/>
<path d="M9.99998 7.99995C9.99998 7.05317 9.23247 6.28566 8.2857 6.28566C7.33892 6.28566 6.57141 7.05317 6.57141 7.99995C6.57141 8.94672 7.33892 9.71423 8.2857 9.71423C9.23247 9.71423 9.99998 8.94672 9.99998 7.99995Z" fill="#332927"/>
</svg>
