<svg xmlns:mydata="http://www.w3.org/2000/svg" mydata:contrastcolor="ffffff" mydata:template="Default" mydata:presentation="2.5" mydata:layouttype="undefined" mydata:specialfontid="undefined" mydata:id1="950" mydata:id2="789" mydata:companyname="ODP" xmlns="http://www.w3.org/2000/svg" viewBox="0 0 550 470" class="svg-bag"><g data-paper-data="{&quot;isGlobalGroup&quot;:true,&quot;bounds&quot;:{&quot;x&quot;:84.70370142713534,&quot;y&quot;:145.66906012180357,&quot;width&quot;:380.5925971457293,&quot;height&quot;:178.66187975639286}}"  stroke-miterlimit="10" font-family="none" font-weight="none" font-size="none" text-anchor="none" style="mix-blend-mode:normal"><g data-paper-data="{&quot;isPrimaryText&quot;:true}"><path d="M274.9 294.1a58.6 58.6 0 0 0 58.8-55.1c.3-2.7-1.3-4-3.7-4h-18.8c-2.4 0-4 1.3-4.2 4a31 31 0 0 1-9.1 19c-6 5.6-14 9.4-23 9.4-8.3 0-15.8-3-21.4-8-5.1-4.3-8.3-10.5-8.3-16.6 0-22.2 17.1-28.1 34.5-34.3 26.2-9 52.4-18.4 54.3-58.6 0-2.9-1.6-4.2-4-4.2h-18.8c-2.4 0-4 1.3-4.2 4-2 22-19 27.8-36.1 33.7-26.3 9.3-52.5 18.4-52.5 59.4 0 14.1 7 27.2 17.4 36.6 10.4 9 24 14.7 39 14.7z" data-paper-data="{&quot;glyphName&quot;:&quot;d&quot;,&quot;glyphIndex&quot;:1,&quot;word&quot;:1}"/><path d="M351.4 324.3H370c2.4 0 4-1.3 4.3-4 1.8-20.8 18.4-24.9 35-28.6 28-6.4 55.9-13.4 55.9-58.8a58.6 58.6 0 0 0-58.8-59.1 59.5 59.5 0 0 0-42 17.3c-10 10-16 23-16.9 37.7-.3 2.7 1.4 4 3.8 4H370c2.4 0 4-1.3 4.3-4a32.3 32.3 0 0 1 32-28.4 32.2 32.2 0 0 1 32.2 32.5c0 24.3-17.7 28.6-35.4 32.6-27.2 6.1-54 12.8-55.9 54.6 0 2.6 1.7 4.2 4 4.2z" data-paper-data="{&quot;glyphName&quot;:&quot;p&quot;,&quot;glyphIndex&quot;:2,&quot;lastGlyphOfWord&quot;:true,&quot;word&quot;:1}"/><g data-paper-data="{&quot;initialText&quot;:&quot;O&quot;,&quot;fillRule&quot;:&quot;nonzero&quot;,&quot;selectedEffects&quot;:{&quot;container&quot;:&quot;&quot;,&quot;transformation&quot;:&quot;&quot;,&quot;pattern&quot;:&quot;&quot;},&quot;bounds&quot;:{&quot;x&quot;:84.70370142713534,&quot;y&quot;:173.75214002363177,&quot;width&quot;:120.11765734934883,&quot;height&quot;:120.11765734934889},&quot;isIcon&quot;:&quot;true&quot;,&quot;iconType&quot;:&quot;initial&quot;,&quot;iconStyle&quot;:&quot;icon-in-text&quot;,&quot;rawInitialId&quot;:706,&quot;line&quot;:1,&quot;iconInPrimaryText&quot;:true,&quot;suitableAsStandaloneIcon&quot;:true}"><path d="M144.7 173.8a57.8 57.8 0 0 0-42.4 17.6 58 58 0 0 0-17.6 42.4c0 16.6 5.9 30.7 17.6 42.5a57.8 57.8 0 0 0 42.4 17.6c16.6 0 30.8-5.9 42.5-17.6a57.8 57.8 0 0 0 17.6-42.5c0-16.5-5.8-30.7-17.6-42.4a57.9 57.9 0 0 0-42.5-17.6zm0 7.3c10.4 0 19.2 5.2 26.5 15.5a62.8 62.8 0 0 1 11 37.2c0 14.6-3.7 27-11 37.3-7.3 10.3-16.1 15.5-26.5 15.5-10.3 0-19-5.2-26.4-15.5a62.7 62.7 0 0 1-11-37.3c0-14.5 3.7-27 11-37.2 7.3-10.3 16.1-15.5 26.4-15.5z" data-paper-data="{&quot;isPathIcon&quot;:true}"/></g></g></g></svg>