<svg width="57" height="56" viewBox="0 0 57 56" fill="none" xmlns="http://www.w3.org/2000/svg">
<path d="M28.0022 56C43.4674 56 56.0044 43.464 56.0044 28C56.0044 12.536 43.4674 0 28.0022 0C12.537 0 0 12.536 0 28C0 43.464 12.537 56 28.0022 56Z" fill="#FFCC9E"/>
<path d="M27.8739 52.2094C41.2982 52.2094 52.1807 41.3277 52.1807 27.9045C52.1807 14.4813 41.2982 3.59961 27.8739 3.59961C14.4497 3.59961 3.56714 14.4813 3.56714 27.9045C3.56714 41.3277 14.4497 52.2094 27.8739 52.2094Z" fill="#F2BE61"/>
<path fill-rule="evenodd" clip-rule="evenodd" d="M52.1823 27.9045C52.1823 14.6849 41.4145 3.59961 28.0029 3.59961L28.1622 27.9045C28.2578 28.3505 39.8855 35.0399 48.8692 40.1684C50.8124 36.4415 52.1823 32.8419 52.1823 27.9045Z" fill="#DC664A"/>
<path fill-rule="evenodd" clip-rule="evenodd" d="M15.0676 48.5794C26.997 55.8789 42.1141 51.956 48.8359 40.1698L27.9378 28.0652C27.9378 28.0652 19.878 32.4929 6.88037 40.0743C8.82364 43.419 11.5633 46.3496 15.0676 48.5794Z" fill="#FFA300"/>
<path d="M10.1305 21.7747C9.52524 21.0421 8.44211 20.9465 7.74126 21.5517C6.72184 22.3799 6.65813 23.463 7.26341 24.1638C7.86869 24.8964 9.11111 24.6735 9.93939 24.1638C10.6402 23.5586 10.7358 22.5074 10.1305 21.7747Z" fill="#DC664A"/>
<path d="M12.7116 30.8033C12.1063 30.0706 11.0232 29.9751 10.3223 30.5803C9.30289 31.4085 9.23918 32.4915 9.84446 33.1923C10.4497 33.925 11.6922 33.702 12.5204 33.1923C13.2213 32.619 13.3169 31.5359 12.7116 30.8033Z" fill="#DC664A"/>
<path d="M23.8137 15.8788C22.7624 18.3316 25.3428 18.5864 25.3428 18.5864C25.3428 18.5864 26.4578 16.261 23.8137 15.8788Z" fill="#DD8D00"/>
<path d="M15.348 23.9763C14.2967 26.4291 16.8771 26.6839 16.8771 26.6839C16.8771 26.6839 17.9921 24.3586 15.348 23.9763Z" fill="#DD8D00"/>
<path d="M5.25584 30.1333C4.20456 32.5861 6.78496 32.8409 6.78496 32.8409C6.78496 32.8409 7.89996 30.5156 5.25584 30.1333Z" fill="#DD8D00"/>
<path d="M18.3496 18.0936C17.2027 20.0686 19.369 20.5464 19.369 20.5464C19.369 20.5464 20.5477 18.667 18.3496 18.0936Z" fill="#DD8D00"/>
<path d="M16.979 29.0826C15.8321 31.0576 17.9984 31.5354 17.9984 31.5354C17.9984 31.5354 19.1771 29.656 16.979 29.0826Z" fill="#DD8D00"/>
<path d="M20.0062 7.51697C18.8594 9.49194 21.0256 9.96975 21.0256 9.96975C21.0256 9.96975 22.2362 8.09035 20.0062 7.51697Z" fill="#DD8D00"/>
<path d="M17.0745 13.1253C16.4692 12.3926 15.3861 12.2971 14.6852 12.9023C13.6658 13.7305 13.6021 14.8136 14.2074 15.5144C14.8127 16.247 16.0551 16.024 16.8834 15.5144C17.5842 14.9091 17.6798 13.8579 17.0745 13.1253Z" fill="#DC664A"/>
<path d="M25.008 10.6085C24.4027 9.8758 23.3196 9.78024 22.6187 10.3855C21.5993 11.2137 21.5356 12.2967 22.1408 12.9975C22.7461 13.7302 23.9886 13.5072 24.8168 12.9975C25.5177 12.3923 25.6133 11.3092 25.008 10.6085Z" fill="#DC664A"/>
<path d="M32.3986 13.4417C31.8888 13.8876 31.0606 13.0594 31.6977 12.4223C31.9844 12.1356 31.9844 11.8808 31.634 11.4667C31.2517 11.0207 31.1561 11.1163 30.7739 11.3074C30.1367 11.5941 29.3722 10.7659 29.8819 10.3518C30.742 9.65099 32.0163 9.77841 32.7171 10.6385C33.3861 11.4667 33.2587 12.7409 32.3986 13.4417Z" fill="#F2BE61"/>
<path d="M31.5703 11.0513L30.1049 12.1662C29.9138 12.2936 29.9138 12.5484 30.0412 12.7395L30.296 13.0262C30.4553 13.1855 30.7102 13.1855 30.8695 13.0262L32.08 11.7202L31.5703 11.0513Z" fill="#F2BE61"/>
<path d="M45.3635 34.6574C44.8538 35.1033 44.0255 34.2751 44.6627 33.638C44.9494 33.3513 44.9494 33.0965 44.599 32.6824C44.2167 32.2364 44.1211 32.332 43.7388 32.5231C43.1017 32.8098 42.3371 31.9816 42.8468 31.5675C43.707 30.8667 44.9812 30.9941 45.6821 31.8542C46.3511 32.6824 46.2237 33.9566 45.3635 34.6574Z" fill="#F2BE61"/>
<path d="M44.5353 32.267L43.0699 33.3819C42.8787 33.5093 42.8787 33.7641 43.0062 33.9552L43.261 34.2419C43.4203 34.4012 43.6752 34.4012 43.8344 34.2419L45.045 32.9359L44.5353 32.267Z" fill="#F2BE61"/>
<path d="M36.2539 21.5339C35.9353 21.8206 35.4256 21.3428 35.7761 20.9286C35.9353 20.7375 35.9353 20.6101 35.7123 20.3553C35.4575 20.1004 35.3938 20.1641 35.1708 20.2916C34.7885 20.4827 34.2788 20.0049 34.5974 19.7182C35.1071 19.2722 35.8716 19.3041 36.3495 19.8137C36.7955 20.2916 36.7318 21.0879 36.2539 21.5339Z" fill="#F2BE61"/>
<path d="M35.6485 20.0999L34.7884 20.8325C34.6928 20.9281 34.661 21.0873 34.7884 21.1829L34.9477 21.3422C35.0432 21.4377 35.2025 21.4377 35.2981 21.3422L35.999 20.514L35.6485 20.0999Z" fill="#F2BE61"/>
<path d="M41.7321 13.4431C42.1781 13.9528 41.4135 14.781 40.7445 14.2076C40.4578 13.9209 40.2029 13.9528 39.7888 14.335C39.3428 14.7173 39.4702 14.8447 39.6614 15.2269C39.98 15.8322 39.1835 16.6604 38.7375 16.1826C38.0048 15.3544 38.0367 14.0802 38.865 13.3475C39.7251 12.583 40.9675 12.6467 41.7321 13.4431Z" fill="#F2BE61"/>
<path d="M39.3748 14.4L40.5535 15.8016C40.6809 15.9609 40.9676 15.9928 41.1269 15.8335L41.4136 15.5468C41.5729 15.3875 41.5729 15.1327 41.3818 14.9734L40.0119 13.8267L39.3748 14.4Z" fill="#F2BE61"/>
<path d="M42.7836 23.8579C43.2296 24.3676 42.465 25.1958 41.796 24.6224C41.5093 24.3357 41.2545 24.3676 40.8403 24.7498C40.3943 25.1321 40.5218 25.2595 40.7129 25.6418C41.0315 26.247 40.235 27.0752 39.7891 26.5974C39.0563 25.7692 39.0882 24.495 39.9165 23.7624C40.7766 22.9979 42.0509 23.0297 42.7836 23.8579Z" fill="#F2BE61"/>
<path d="M40.4263 24.8128L41.605 26.2144C41.7324 26.3736 42.0191 26.4055 42.1784 26.2462L42.4651 25.9595C42.6244 25.8002 42.6244 25.5454 42.4332 25.3861L41.0634 24.2394L40.4263 24.8128Z" fill="#F2BE61"/>
<path d="M48.7091 23.3175C48.3905 23.6041 47.8808 23.1263 48.2313 22.7122C48.3905 22.5211 48.3905 22.3937 48.1675 22.1388C47.9127 21.884 47.849 21.9477 47.626 22.0751C47.2437 22.2663 46.734 21.7884 47.0526 21.5017C47.5623 21.0558 48.3268 21.0876 48.8047 21.5973C49.2188 22.0751 49.187 22.8396 48.7091 23.3175Z" fill="#F2BE61"/>
<path d="M48.1037 21.8506L47.2436 22.5832C47.148 22.6788 47.1162 22.8381 47.2436 22.9336L47.4029 23.0929C47.4984 23.1885 47.6577 23.1885 47.7533 23.0929L48.4541 22.2647L48.1037 21.8506Z" fill="#F2BE61"/>
<path d="M3.66418 28.0312C3.66418 27.9357 3.7279 27.8719 3.82347 27.8719H52.1822C52.2777 27.8719 52.3415 27.9357 52.3415 28.0312C52.3415 28.1268 52.2777 28.1905 52.1822 28.1905H3.82347C3.7279 28.1905 3.66418 28.1268 3.66418 28.0312Z" fill="#EB9774"/>
<path d="M6.91297 40.0721C6.88112 40.0084 6.88112 39.9128 6.97669 39.8491L48.8685 15.7991C48.9322 15.7672 49.0277 15.7672 49.0914 15.8628C49.1233 15.9265 49.1233 16.0221 49.0277 16.0858L7.13597 40.1358C7.0404 40.1995 6.94483 40.1677 6.91297 40.0721Z" fill="#EB9774"/>
<path d="M49.0596 40.0731C49.0915 40.0094 49.0914 39.9138 48.9959 39.8501L7.13597 15.8319C7.07226 15.8001 6.97669 15.8001 6.91297 15.8956C6.88112 15.9593 6.88112 16.0549 6.97669 16.1186L48.8685 40.1686C48.9322 40.2005 49.0277 40.1686 49.0596 40.0731Z" fill="#EB9673"/>
<path d="M15.1314 48.6105C15.0677 48.5786 15.0358 48.4512 15.0677 48.3875L40.585 7.3909C40.6169 7.3272 40.7443 7.29534 40.808 7.32719C40.8717 7.35905 40.9036 7.48647 40.8717 7.55018L15.3544 48.5468C15.3225 48.6423 15.227 48.6742 15.1314 48.6105Z" fill="#EB9673"/>
<path d="M28.0333 52.2668C27.9188 52.2668 27.8424 52.2029 27.8424 52.1071V3.76938C27.8424 3.6736 27.9188 3.60974 28.0333 3.60974C28.1478 3.60974 28.2241 3.6736 28.2241 3.76938V52.0752C28.2241 52.171 28.1478 52.2668 28.0333 52.2668Z" fill="#EB9774"/>
<path d="M40.8399 48.6105C40.9036 48.5786 40.9354 48.4512 40.9036 48.3875L15.3544 7.3909C15.3225 7.3272 15.1951 7.29534 15.1314 7.32719C15.0677 7.35905 15.0358 7.48647 15.0677 7.55018L40.585 48.5468C40.6806 48.6423 40.7761 48.6742 40.8399 48.6105Z" fill="#EB9673"/>
<path d="M30.9831 40.1714C27.8171 45.6171 33.8504 46.9193 33.8504 46.9193C33.8504 46.9193 37.1359 41.7696 30.9831 40.1714Z" fill="#CE5715"/>
<path d="M40.5825 38.9445C38.583 42.4099 42.3935 43.2386 42.3935 43.2386C42.3935 43.2386 44.4685 39.9615 40.5825 38.9445Z" fill="#CE5715"/>
<path d="M22.2115 44.9563C20.5231 47.8869 23.7406 48.5877 23.7406 48.5877C23.7406 48.5877 25.4927 45.8164 22.2115 44.9563Z" fill="#CE5715"/>
<path d="M18.4435 38.9426C13.5391 34.8587 11.1989 40.615 11.1989 40.615C11.1989 40.615 15.7866 44.766 18.4435 38.9426Z" fill="#CE5715"/>
<path d="M25.1888 36.0578C23.1184 37.1544 24.7473 38.7514 24.7473 38.7514C24.7473 38.7514 26.7964 37.7717 25.1888 36.0578Z" fill="#CE5715"/>
</svg>
