<svg width="20" height="20" viewBox="0 0 20 20" xmlns="http://www.w3.org/2000/svg">
<path fill-rule="evenodd" clip-rule="evenodd" d="M6.80658 10.1278C6.80658 10.759 6.99376 11.3761 7.34445 11.9009C7.69514 12.4258 8.19359 12.8348 8.77676 13.0764C9.35994 13.318 10.0016 13.3812 10.6207 13.258C11.2398 13.1349 11.8085 12.8309 12.2549 12.3846C12.7012 11.9382 13.0052 11.3695 13.1283 10.7504C13.2515 10.1314 13.1883 9.48964 12.9467 8.90647C12.7051 8.32329 12.2961 7.82484 11.7712 7.47415C11.2464 7.12346 10.6293 6.93628 9.99811 6.93628C9.15197 6.93728 8.34077 7.27385 7.74246 7.87216C7.14415 8.47048 6.80758 9.28167 6.80658 10.1278ZM1.68274 10.1023C2.71791 8.89034 6.09472 5.32539 10.0019 5.32539C13.9091 5.32539 17.2811 8.89128 18.321 10.1032C17.2878 11.3256 13.91 14.9293 10.0019 14.9293C6.09378 14.9293 2.71885 11.3237 1.68368 10.1023H1.68274ZM19.6975 9.70146C19.5226 9.4689 15.3328 4 9.99905 4C4.66534 4 0.472679 9.4689 0.300624 9.70146L0 10.0985L0.298733 10.4974C0.47457 10.7328 4.6644 16.2547 10 16.2547C15.3356 16.2547 19.5254 10.7328 19.7013 10.4974L20 10.0985L19.6975 9.70146Z" />
</svg>
