<svg width="20" height="20" viewBox="0 0 20 20" fill="none" xmlns="http://www.w3.org/2000/svg">
<path fill-rule="evenodd" clip-rule="evenodd" d="M15.8763 5.28633C17.3173 6.30336 18.6048 7.52205 19.6993 8.90508L20 9.30222L19.7012 9.70126C19.5253 9.93671 15.3354 15.4589 10.0005 15.4589C8.78521 15.4448 7.58565 15.1825 6.47534 14.6883L7.49846 13.667C8.29797 13.9701 9.14456 14.1301 9.99953 14.1398C13.9048 14.1398 17.2805 10.5362 18.315 9.31735C17.319 8.15434 16.1763 7.12547 14.9156 6.2565L15.8763 5.28633ZM14.7189 4.55729C13.2882 3.70844 11.6627 3.24304 9.99953 3.20605C4.66645 3.20605 0.472791 8.67435 0.300695 8.90697L0 9.30506L0.298804 9.70409C1.65793 11.4444 3.32446 12.9209 5.21583 14.0604L6.19545 13.0808C4.47904 12.1002 2.95002 10.8231 1.67935 9.30884C2.71855 8.0966 6.09522 4.52987 9.99953 4.52987C11.3085 4.56019 12.5907 4.90701 13.7365 5.5407L14.7189 4.55729ZM7.71689 11.5631C7.11852 10.9647 6.78236 10.1532 6.78236 9.30695C6.78236 8.46072 7.11852 7.64916 7.71689 7.05079C8.31526 6.45242 9.12683 6.11626 9.97305 6.11626C10.8193 6.11626 11.6308 6.45242 12.2292 7.05079L7.71689 11.5631ZM8.85159 12.313C9.42795 12.5347 10.0562 12.5845 10.6603 12.4563C11.2644 12.3281 11.8184 12.0275 12.255 11.5908C12.6917 11.1541 12.9923 10.6002 13.1205 9.99612C13.2487 9.39203 13.1989 8.76374 12.9772 8.18738L8.85159 12.313Z" fill="#332927"/>
<path fill-rule="evenodd" clip-rule="evenodd" d="M16.4239 1L17.3695 1.94558L2.08792 17.2215L1.14233 16.2759L16.4239 1Z" fill="#332927"/>
</svg>
