<svg width="20" height="20" viewBox="0 0 20 20" fill="none" xmlns="http://www.w3.org/2000/svg">
<path d="M17.0766 1.29028H2.92335C2.49063 1.29159 2.07601 1.46406 1.77003 1.77003C1.46406 2.07601 1.29159 2.49063 1.29028 2.92335V17.0766C1.29159 17.5093 1.46406 17.9239 1.77003 18.2299C2.07601 18.5359 2.49063 18.7083 2.92335 18.7096H10.5443V11.633H8.63893V8.91125H10.5443V7.55051C10.5884 6.02457 10.9833 4.66703 13.5706 4.5567H15.7158V7.25467H13.9022C13.7868 7.24776 13.6712 7.26427 13.5623 7.30319C13.4534 7.34211 13.3536 7.40265 13.2687 7.48117C13.1839 7.55968 13.1158 7.65455 13.0685 7.76007C13.0213 7.86558 12.9958 7.97956 12.9938 8.09515V8.91125H15.7155L15.251 11.633H12.9938V18.7096H17.0766C17.5093 18.7083 17.9239 18.5359 18.2299 18.2299C18.5359 17.9239 18.7083 17.5093 18.7096 17.0766V2.92335C18.7083 2.49063 18.5359 2.07601 18.2299 1.77003C17.9239 1.46406 17.5093 1.29159 17.0766 1.29028V1.29028Z" stroke="#332927" stroke-width="1.4" stroke-miterlimit="10" stroke-linecap="round" stroke-linejoin="round"/>
</svg>
