<svg width="20" height="20" viewBox="0 0 20 20" fill="none" xmlns="http://www.w3.org/2000/svg">
<g clip-path="url(#clip0)">
<path d="M18.4063 14.6875L15.1562 12.5625C14.8304 12.356 14.4375 12.283 14.0592 12.3586C13.681 12.4343 13.3464 12.6528 13.125 12.9687C12.375 13.875 11.4687 15.3749 8.0625 11.9687C4.65625 8.56245 6.125 7.62495 7.03125 6.87495C7.34717 6.65357 7.56565 6.31899 7.64131 5.94071C7.71696 5.56244 7.64397 5.16956 7.4375 4.8437L5.3125 1.5937C5.03125 1.18745 4.65625 0.5312 3.78125 0.6562C2.90625 0.7812 0.625 2.06245 0.625 4.87495C0.625 7.68745 2.84375 11.1249 5.875 14.1562C8.90625 17.1874 12.3438 19.375 15.125 19.375C17.9063 19.375 19.25 16.875 19.3438 16.25C19.4375 15.625 18.8125 14.9687 18.4063 14.6875Z" stroke="#332927" stroke-width="1.4" stroke-miterlimit="10" stroke-linecap="round" stroke-linejoin="round"/>
</g>
<defs>
<clipPath id="clip0">
<rect width="20" height="20" fill="white"/>
</clipPath>
</defs>
</svg>
