<svg width="20" height="21" viewBox="0 0 20 21" fill="none" xmlns="http://www.w3.org/2000/svg">
<path d="M10 0.699951C8.3424 0.699951 6.75269 1.35843 5.58058 2.53053C4.40848 3.70264 3.75 5.29235 3.75 6.94995C3.75 12.575 10 19.1375 10 19.1375C10 19.1375 16.25 12.575 16.25 6.94995C16.25 5.29235 15.5915 3.70264 14.4194 2.53053C13.2473 1.35843 11.6576 0.699951 10 0.699951V0.699951Z"  stroke-width="1.4" stroke-miterlimit="10" stroke-linecap="round" stroke-linejoin="round"/>
<path d="M10 9.44995C11.3807 9.44995 12.5 8.33066 12.5 6.94995C12.5 5.56924 11.3807 4.44995 10 4.44995C8.61929 4.44995 7.5 5.56924 7.5 6.94995C7.5 8.33066 8.61929 9.44995 10 9.44995Z"  stroke-width="1.4" stroke-miterlimit="10" stroke-linecap="round" stroke-linejoin="round"/>
</svg>
