<svg width="64" height="64" viewBox="0 0 64 64" fill="none" xmlns="http://www.w3.org/2000/svg">
<path d="M61.7 34.2V48C61.7 48.5304 61.4892 49.0391 61.1142 49.4142C60.7391 49.7893 60.2304 50 59.7 50C59.1695 50 58.6608 49.7893 58.2857 49.4142C57.9107 49.0391 57.7 48.5304 57.7 48V34.1" fill="#F05A41"/>
<path d="M61.7 34.2V12C60.0291 12 58.4267 12.6637 57.2452 13.8452C56.0637 15.0267 55.4 16.6291 55.4 18.3V31C55.4 31.4202 55.4827 31.8363 55.6435 32.2246C55.8044 32.6128 56.0401 32.9656 56.3372 33.2627C56.6344 33.5599 56.9871 33.7956 57.3754 33.9564C57.7636 34.1172 58.1797 34.2 58.6 34.2H61.7ZM11.2 24.7L10.5 12H2.89996L2.29996 24.7C2.26143 25.4657 2.47539 26.2229 2.90898 26.8552C3.34257 27.4876 3.97179 27.96 4.69996 28.2V48C4.69996 48.5304 4.91067 49.0391 5.28574 49.4142C5.66082 49.7893 6.16952 50 6.69996 50C7.23039 50 7.7391 49.7893 8.11417 49.4142C8.48924 49.0391 8.69996 48.5304 8.69996 48V28.1C9.42985 27.8825 10.0689 27.4328 10.52 26.8192C10.9712 26.2056 11.2099 25.4616 11.2 24.7Z" fill="#BACAE8"/>
<path d="M32.7 52C43.1934 52 51.7 43.4934 51.7 33C51.7 22.5066 43.1934 14 32.7 14C22.2065 14 13.7 22.5066 13.7 33C13.7 43.4934 22.2065 52 32.7 52Z" fill="#DDE5F4"/>
<path opacity="0.5" d="M21.7 33C21.696 30.7894 22.3581 28.6288 23.6 26.8C22.2352 27.6885 21.0846 28.8688 20.2314 30.256C19.3782 31.6431 18.8436 33.2024 18.6662 34.8213C18.4889 36.4401 18.6732 38.0782 19.2059 39.6171C19.7386 41.1561 20.6064 42.5576 21.7465 43.7204C22.8867 44.8832 24.2708 45.7783 25.799 46.3412C27.3272 46.9041 28.9613 47.1206 30.5833 46.9751C32.2054 46.8297 33.7749 46.3259 35.1785 45.5001C36.5822 44.6743 37.785 43.5472 38.7 42.2001C37.0414 43.2795 35.1222 43.8915 33.1448 43.9715C31.1674 44.0515 29.2051 43.5966 27.4646 42.6547C25.7241 41.7128 24.27 40.3188 23.2554 38.6196C22.2409 36.9205 21.7036 34.9791 21.7 33Z" fill="white"/>
<path opacity="0.25" d="M32.7 22C30.8978 22.0088 29.1254 22.4603 27.5387 23.3147C25.9519 24.1691 24.5993 25.4003 23.6 26.9C25.711 25.4868 28.246 24.8479 30.7747 25.0916C33.3033 25.3354 35.6696 26.4468 37.4718 28.2372C39.274 30.0276 40.401 32.3866 40.6613 34.9136C40.9216 37.4406 40.2993 39.9798 38.9 42.1C40.8478 40.7772 42.3199 38.8643 43.0996 36.6426C43.8793 34.4209 43.9255 32.0077 43.2315 29.7577C42.5375 27.5078 41.1398 25.5399 39.2441 24.1434C37.3483 22.747 35.0545 21.9957 32.7 22Z" fill="#101129"/>
<path d="M32.7 52C43.1934 52 51.7 43.4934 51.7 33C51.7 22.5066 43.1934 14 32.7 14C22.2065 14 13.7 22.5066 13.7 33C13.7 43.4934 22.2065 52 32.7 52Z" stroke="#2F446A" stroke-width="2" stroke-linecap="round" stroke-linejoin="round"/>
<path d="M32.7 44C38.7751 44 43.7 39.0751 43.7 33C43.7 26.9249 38.7751 22 32.7 22C26.6248 22 21.7 26.9249 21.7 33C21.7 39.0751 26.6248 44 32.7 44Z" stroke="#2F446A" stroke-width="2" stroke-linecap="round" stroke-linejoin="round"/>
<path d="M6.69995 12V21.5M61.7 34.2V48C61.7 48.5304 61.4892 49.0391 61.1142 49.4142C60.7391 49.7893 60.2304 50 59.7 50C59.1695 50 58.6608 49.7893 58.2857 49.4142C57.9107 49.0391 57.7 48.5304 57.7 48V34.1L61.7 34.2Z" stroke="#2F446A" stroke-width="2" stroke-linecap="round" stroke-linejoin="round"/>
<path d="M61.7 34.2V12C60.0291 12 58.4267 12.6637 57.2452 13.8452C56.0637 15.0267 55.4 16.6291 55.4 18.3V31C55.4 31.4202 55.4827 31.8363 55.6435 32.2246C55.8044 32.6128 56.0401 32.9656 56.3372 33.2627C56.6344 33.5599 56.9871 33.7956 57.3754 33.9564C57.7636 34.1172 58.1797 34.2 58.6 34.2H61.7ZM11.2 24.7L10.5 12H2.89996L2.29996 24.7C2.26143 25.4657 2.47539 26.2229 2.90898 26.8552C3.34257 27.4876 3.97179 27.96 4.69996 28.2V48C4.69996 48.5304 4.91067 49.0391 5.28574 49.4142C5.66082 49.7893 6.16952 50 6.69996 50C7.23039 50 7.7391 49.7893 8.11417 49.4142C8.48924 49.0391 8.69996 48.5304 8.69996 48V28.1C9.42985 27.8825 10.0689 27.4328 10.52 26.8192C10.9712 26.2056 11.2099 25.4616 11.2 24.7V24.7Z" stroke="#2F446A" stroke-width="2" stroke-linecap="round" stroke-linejoin="round"/>
</svg>
