<svg width="24" height="24" viewBox="0 0 24 24" fill="none" xmlns="http://www.w3.org/2000/svg">
<path fill-rule="evenodd" clip-rule="evenodd" d="M8.02983 20.5C6.64912 20.5 5.52983 19.3807 5.52983 18V6H4.02983V18C4.02983 20.2091 5.82069 22 8.02983 22H16.0298C18.239 22 20.0298 20.2091 20.0298 18V6H18.5298V18C18.5298 19.3807 17.4105 20.5 16.0298 20.5H8.02983Z" fill="#3E3E3E"/>
<rect x="2.02904" y="5.50049" width="20" height="1.5" rx="0.75" fill="#3E3E3E"/>
<rect x="9.02948" y="10.0005" width="1.5" height="7" rx="0.75" fill="#3E3E3E"/>
<rect x="13.5295" y="10.0005" width="1.5" height="7" rx="0.75" fill="#3E3E3E"/>
<path fill-rule="evenodd" clip-rule="evenodd" d="M14.0298 1.99951H10.0298C8.37298 1.99951 7.02983 3.34266 7.02983 4.99951V6.99951H17.0298V4.99951C17.0298 3.34266 15.6867 1.99951 14.0298 1.99951ZM15.5299 5.49951H8.52986V4.99951C8.52986 4.17108 9.20143 3.49951 10.0299 3.49951H14.0299C14.8583 3.49951 15.5299 4.17108 15.5299 4.99951V5.49951Z" fill="#3E3E3E"/>
</svg>
