<svg width="100" height="100" viewBox="0 0 100 100" fill="none" xmlns="http://www.w3.org/2000/svg">
<path d="M27.5 16.25V72.5H47.1875V78.125C47.1875 81.8546 48.6691 85.4315 51.3063 88.0687C53.9435 90.7059 57.5204 92.1875 61.25 92.1875C64.9796 92.1875 68.5565 90.7059 71.1937 88.0687C73.8309 85.4315 75.3125 81.8546 75.3125 78.125V16.25C75.3122 14.0364 76.1818 11.9113 77.7339 10.333C79.2859 8.7546 81.3961 7.84939 83.6094 7.8125H35.9375C33.6997 7.8125 31.5536 8.70145 29.9713 10.2838C28.3889 11.8661 27.5 14.0122 27.5 16.25Z" fill="#E0EAFC"/>
<path d="M61.25 92.1875C57.5204 92.1875 53.9435 90.7059 51.3063 88.0687C48.6691 85.4315 47.1875 81.8546 47.1875 78.125V72.5H7.8125V78.125C7.8125 81.8546 9.29408 85.4315 11.9313 88.0687C13.2371 89.3745 14.7874 90.4103 16.4935 91.1171C18.1997 91.8238 20.0283 92.1875 21.875 92.1875H61.25ZM75.3125 16.25C75.3125 14.0122 76.2014 11.8661 77.7838 10.2838C79.3661 8.70145 81.5122 7.8125 83.75 7.8125C85.9878 7.8125 88.1339 8.70145 89.7162 10.2838C91.2986 11.8661 92.1875 14.0122 92.1875 16.25V21.875H75.3125V16.25Z" fill="#E0EAFC"/>
<path opacity="0.15" d="M61.25 92.1875C57.5204 92.1875 53.9435 90.7059 51.3063 88.0687C48.6691 85.4315 47.1875 81.8546 47.1875 78.125V72.5H7.8125V78.125C7.8125 81.8546 9.29408 85.4315 11.9313 88.0687C13.2371 89.3745 14.7874 90.4103 16.4935 91.1171C18.1997 91.8238 20.0283 92.1875 21.875 92.1875H61.25ZM75.3125 16.25C75.3125 14.0122 76.2014 11.8661 77.7838 10.2838C79.3661 8.70145 81.5122 7.8125 83.75 7.8125C85.9878 7.8125 88.1339 8.70145 89.7162 10.2838C91.2986 11.8661 92.1875 14.0122 92.1875 16.25V21.875H75.3125V16.25Z" fill="#000064"/>
<path d="M27.5 72.5V16.25C27.5 14.0122 28.3889 11.8661 29.9713 10.2838C31.5536 8.70145 33.6997 7.8125 35.9375 7.8125H83.75" stroke="#2E4369" stroke-width="2" stroke-linecap="round" stroke-linejoin="round"/>
<path d="M92.1875 21.875V16.25C92.1875 14.0122 91.2986 11.8661 89.7162 10.2838C88.1339 8.70145 85.9878 7.8125 83.75 7.8125C81.5122 7.8125 79.3661 8.70145 77.7838 10.2838C76.2014 11.8661 75.3125 14.0122 75.3125 16.25V78.125C75.3125 81.8546 73.8309 85.4315 71.1937 88.0687C68.5565 90.7059 64.9796 92.1875 61.25 92.1875M61.25 92.1875C57.5204 92.1875 53.9435 90.7059 51.3063 88.0687C48.6691 85.4315 47.1875 81.8546 47.1875 78.125V72.5H7.8125V78.125C7.8125 81.8546 9.29408 85.4315 11.9313 88.0687C13.2371 89.3745 14.7874 90.4104 16.4935 91.1171C18.1997 91.8238 20.0283 92.1875 21.875 92.1875H61.25ZM38.75 21.875H61.25M38.75 44.375H61.25M38.75 33.125H55.625M38.75 55.625H55.625" stroke="#2E4369" stroke-width="2" stroke-linecap="round" stroke-linejoin="round"/>
</svg>
