<svg width="100" height="100" viewBox="0 0 100 100" fill="none" xmlns="http://www.w3.org/2000/svg">
<path d="M74.7344 13.875H46.5312V16.8438H31.6875V13.875H18.3281C14.785 13.875 11.387 15.2825 8.88162 17.7879C6.37625 20.2932 4.96875 23.6912 4.96875 27.2344V64.3438H61.375V27.2344C61.375 23.6912 62.7825 20.2932 65.2879 17.7879C67.7932 15.2825 71.1912 13.875 74.7344 13.875Z" fill="#7BBDFF"/>
<path d="M88.0938 28.7188V27.2344C88.0938 23.6912 86.6862 20.2932 84.1809 17.7879C81.6755 15.2825 78.2775 13.875 74.7344 13.875C71.1912 13.875 67.7932 15.2825 65.2879 17.7879C62.7825 20.2932 61.375 23.6912 61.375 27.2344V64.3438H88.0938V52.4688H73.25V28.7188H88.0938Z" fill="#99CCFF"/>
<path d="M31.6875 4.96875H46.5312V16.8438H31.6875V4.96875Z" fill="#F27E7C"/>
<path d="M89.7266 52.4688H73.25V28.7188H93.7344L89.7266 52.4688Z" fill="#FFF4E3"/>
<path opacity="0.15" d="M73.25 28.7188L61.375 40.5938V64.3438H68.9453L79.1875 52.4688H73.25V28.7188Z" fill="#000064"/>
<path opacity="0.25" d="M46.5312 13.8751V16.8438H43.5625V22.7813H28.7188V13.8751H18.3281C15.2946 13.8666 12.3485 14.8909 9.97445 16.7793C7.60039 18.6678 5.93973 21.308 5.26562 24.2657H61.6719C62.346 21.308 64.0066 18.6678 66.3807 16.7793C68.7548 14.8909 71.7008 13.8666 74.7344 13.8751H46.5312Z" fill="white"/>
<path opacity="0.15" d="M43.5625 22.7812V16.8438H31.6875V13.875H28.7188V22.7812H43.5625Z" fill="#000064"/>
<path d="M61.375 64.3438H4.96875V27.2344C4.96875 23.6912 6.37625 20.2932 8.88162 17.7879C11.387 15.2825 14.785 13.875 18.3281 13.875H31.6875M37.625 64.3438V91.0625V64.3438ZM88.0938 52.4688V64.3438H61.375V27.2344C61.375 23.6912 62.7825 20.2932 65.2879 17.7879C67.7932 15.2825 71.1912 13.875 74.7344 13.875C78.2775 13.875 81.6755 15.2825 84.1809 17.7879C86.6862 20.2932 88.0938 23.6912 88.0938 27.2344V52.4688ZM46.5312 13.875H74.7344H46.5312Z" stroke="#2E4369" stroke-width="2" stroke-miterlimit="10" stroke-linecap="round" stroke-linejoin="round"/>
<path d="M46.5312 16.8438V28.7188M89.7266 52.4688H73.25V28.7188H93.7344L89.7266 52.4688V52.4688ZM31.6875 4.96875H46.5312V16.8438H31.6875V4.96875Z" stroke="#2E4369" stroke-width="2" stroke-miterlimit="10" stroke-linecap="round" stroke-linejoin="round"/>
</svg>
