<svg width="100" height="100" viewBox="0 0 100 100" fill="none" xmlns="http://www.w3.org/2000/svg">
<path d="M96.4062 53.4375V75C96.4062 75.8288 96.077 76.6237 95.491 77.2097C94.9049 77.7958 94.1101 78.125 93.2812 78.125C92.4524 78.125 91.6576 77.7958 91.0715 77.2097C90.4855 76.6237 90.1562 75.8288 90.1562 75V53.2812" fill="#F05A41"/>
<path d="M96.4062 53.4375V18.75C93.7955 18.75 91.2917 19.7871 89.4456 21.6332C87.5996 23.4792 86.5625 25.983 86.5625 28.5937V48.4375C86.5625 49.0941 86.6918 49.7443 86.9431 50.3509C87.1943 50.9575 87.5626 51.5087 88.0269 51.973C88.4912 52.4373 89.0424 52.8056 89.649 53.0569C90.2557 53.3082 90.9058 53.4375 91.5625 53.4375H96.4062ZM17.5 38.5938L16.4062 18.75H4.53121L3.5937 38.5938C3.5335 39.7902 3.86783 40.9733 4.54531 41.9613C5.22279 42.9493 6.20595 43.6875 7.3437 44.0625V75C7.3437 75.8288 7.67295 76.6237 8.259 77.2097C8.84505 77.7958 9.6399 78.125 10.4687 78.125C11.2975 78.125 12.0924 77.7958 12.6784 77.2097C13.2645 76.6237 13.5937 75.8288 13.5937 75V43.9062C14.7342 43.5663 15.7326 42.8637 16.4376 41.905C17.1425 40.9462 17.5155 39.7837 17.5 38.5938Z" fill="#BACAE8"/>
<path d="M51.0937 81.25C67.4897 81.25 80.7812 67.9585 80.7812 51.5625C80.7812 35.1665 67.4897 21.875 51.0937 21.875C34.6978 21.875 21.4062 35.1665 21.4062 51.5625C21.4062 67.9585 34.6978 81.25 51.0937 81.25Z" fill="#DDE5F4"/>
<path opacity="0.5" d="M33.9062 51.5625C33.8999 48.1084 34.9345 44.7325 36.875 41.875C34.7424 43.2631 32.9446 45.1075 31.6114 47.2749C30.2783 49.4423 29.443 51.8787 29.1659 54.4082C28.8888 56.9376 29.1769 59.497 30.0092 61.9017C30.8415 64.3063 32.1974 66.4961 33.9789 68.313C35.7604 70.1299 37.9231 71.5286 40.3109 72.4081C42.6987 73.2875 45.2519 73.6258 47.7864 73.3985C50.3208 73.1713 52.7731 72.3841 54.9663 71.0938C57.1596 69.8035 59.0389 68.0424 60.4687 65.9375C57.877 67.6242 54.8783 68.5804 51.7887 68.7054C48.699 68.8305 45.6328 68.1196 42.9133 66.6479C40.1938 65.1762 37.9217 62.998 36.3365 60.3431C34.7513 57.6881 33.9117 54.6547 33.9062 51.5625Z" fill="white"/>
<path opacity="0.25" d="M51.0938 34.375C48.2779 34.3888 45.5085 35.0942 43.0292 36.4292C40.5499 37.7642 38.4365 39.688 36.875 42.0313C40.1734 39.8232 44.1345 38.8248 48.0855 39.2057C52.0365 39.5865 55.7339 41.3232 58.5498 44.1207C61.3657 46.9182 63.1265 50.6041 63.5333 54.5525C63.9401 58.5009 62.9677 62.4684 60.7813 65.7813C63.8248 63.7144 66.1248 60.7255 67.3431 57.2541C68.5614 53.7827 68.6337 50.012 67.5493 46.4964C66.4649 42.9809 64.281 39.906 61.3189 37.7241C58.3568 35.5422 54.7727 34.3683 51.0938 34.375Z" fill="#101129"/>
<path d="M51.0937 81.25C67.4897 81.25 80.7812 67.9585 80.7812 51.5625C80.7812 35.1665 67.4897 21.875 51.0937 21.875C34.6978 21.875 21.4062 35.1665 21.4062 51.5625C21.4062 67.9585 34.6978 81.25 51.0937 81.25Z" stroke="#2F446A" stroke-width="2" stroke-linecap="round" stroke-linejoin="round"/>
<path d="M51.0937 68.75C60.5861 68.75 68.2812 61.0549 68.2812 51.5625C68.2812 42.0701 60.5861 34.375 51.0937 34.375C41.6014 34.375 33.9062 42.0701 33.9062 51.5625C33.9062 61.0549 41.6014 68.75 51.0937 68.75Z" stroke="#2F446A" stroke-width="2" stroke-linecap="round" stroke-linejoin="round"/>
<path d="M10.4688 18.75V33.5938M96.4062 53.4375V75C96.4062 75.8288 96.077 76.6237 95.4909 77.2097C94.9049 77.7958 94.11 78.125 93.2812 78.125C92.4524 78.125 91.6576 77.7958 91.0715 77.2097C90.4855 76.6237 90.1562 75.8288 90.1562 75V53.2812L96.4062 53.4375Z" stroke="#2F446A" stroke-width="2" stroke-linecap="round" stroke-linejoin="round"/>
<path d="M96.4062 53.4375V18.75C93.7955 18.75 91.2917 19.7871 89.4456 21.6332C87.5996 23.4792 86.5625 25.983 86.5625 28.5937V48.4375C86.5625 49.0941 86.6918 49.7443 86.9431 50.3509C87.1943 50.9575 87.5626 51.5087 88.0269 51.973C88.4912 52.4373 89.0424 52.8056 89.649 53.0569C90.2557 53.3082 90.9058 53.4375 91.5625 53.4375H96.4062ZM17.5 38.5938L16.4062 18.75H4.53121L3.5937 38.5938C3.5335 39.7902 3.86783 40.9733 4.54531 41.9613C5.22279 42.9493 6.20595 43.6875 7.3437 44.0625V75C7.3437 75.8288 7.67295 76.6237 8.259 77.2097C8.84505 77.7958 9.6399 78.125 10.4687 78.125C11.2975 78.125 12.0924 77.7958 12.6784 77.2097C13.2645 76.6237 13.5937 75.8288 13.5937 75V43.9063C14.7342 43.5663 15.7326 42.8637 16.4376 41.905C17.1425 40.9462 17.5155 39.7837 17.5 38.5938V38.5938Z" stroke="#2F446A" stroke-width="2" stroke-linecap="round" stroke-linejoin="round"/>
</svg>
