<svg width="64" height="64" viewBox="0 0 64 64" fill="none" xmlns="http://www.w3.org/2000/svg">
<path d="M18 11V46H30.25V49.5C30.25 51.8206 31.1719 54.0462 32.8128 55.6872C34.4538 57.3281 36.6794 58.25 39 58.25C41.3206 58.25 43.5462 57.3281 45.1872 55.6872C46.8281 54.0462 47.75 51.8206 47.75 49.5V11C47.7498 9.62264 48.2909 8.30037 49.2566 7.31829C50.2223 6.3362 51.5353 5.77296 52.9125 5.75H23.25C21.8576 5.75 20.5223 6.30312 19.5377 7.28769C18.5531 8.27226 18 9.60761 18 11Z" fill="#E0EAFC"/>
<path d="M39 58.25C36.6794 58.25 34.4538 57.3281 32.8128 55.6872C31.1719 54.0462 30.25 51.8206 30.25 49.5V46H5.75V49.5C5.75 51.8206 6.67187 54.0462 8.31282 55.6872C9.12533 56.4997 10.0899 57.1442 11.1515 57.5839C12.2131 58.0237 13.3509 58.25 14.5 58.25H39ZM47.75 11C47.75 9.60761 48.3031 8.27226 49.2877 7.28769C50.2723 6.30312 51.6076 5.75 53 5.75C54.3924 5.75 55.7277 6.30312 56.7123 7.28769C57.6969 8.27226 58.25 9.60761 58.25 11V14.5H47.75V11Z" fill="#E0EAFC"/>
<path opacity="0.15" d="M39 58.25C36.6794 58.25 34.4538 57.3281 32.8128 55.6872C31.1719 54.0462 30.25 51.8206 30.25 49.5V46H5.75V49.5C5.75 51.8206 6.67187 54.0462 8.31282 55.6872C9.12533 56.4997 10.0899 57.1442 11.1515 57.5839C12.2131 58.0237 13.3509 58.25 14.5 58.25H39ZM47.75 11C47.75 9.60761 48.3031 8.27226 49.2877 7.28769C50.2723 6.30312 51.6076 5.75 53 5.75C54.3924 5.75 55.7277 6.30312 56.7123 7.28769C57.6969 8.27226 58.25 9.60761 58.25 11V14.5H47.75V11Z" fill="#000064"/>
<path d="M18 46V11C18 9.60761 18.5531 8.27226 19.5377 7.28769C20.5223 6.30312 21.8576 5.75 23.25 5.75H53" stroke="#2E4369" stroke-width="2" stroke-linecap="round" stroke-linejoin="round"/>
<path d="M58.25 14.5V11C58.25 9.60761 57.6969 8.27226 56.7123 7.28769C55.7277 6.30312 54.3924 5.75 53 5.75C51.6076 5.75 50.2723 6.30312 49.2877 7.28769C48.3031 8.27226 47.75 9.60761 47.75 11V49.5C47.75 51.8206 46.8281 54.0462 45.1872 55.6872C43.5462 57.3281 41.3206 58.25 39 58.25M39 58.25C36.6794 58.25 34.4538 57.3281 32.8128 55.6872C31.1719 54.0462 30.25 51.8206 30.25 49.5V46H5.75V49.5C5.75 51.8206 6.67187 54.0462 8.31282 55.6872C9.12533 56.4997 10.0899 57.1442 11.1515 57.5839C12.2131 58.0237 13.3509 58.25 14.5 58.25H39ZM25 14.5H39M25 28.5H39M25 21.5H35.5M25 35.5H35.5" stroke="#2E4369" stroke-width="2" stroke-linecap="round" stroke-linejoin="round"/>
</svg>
