<svg width="30" height="30" viewBox="0 0 30 30" fill="none" xmlns="http://www.w3.org/2000/svg">
<path d="M25.3125 13.9542V29.0625H18.75M4.6875 14.0625V29.0625H11.25M25.3125 10.5938V3.75H21.0938V7.23984L25.3125 10.5938Z" stroke="#332927" stroke-width="1.4" stroke-miterlimit="10" stroke-linecap="round" stroke-linejoin="round"/>
<path d="M15 15.9375C16.2944 15.9375 17.3438 14.8882 17.3438 13.5938C17.3438 12.2993 16.2944 11.25 15 11.25C13.7056 11.25 12.6562 12.2993 12.6562 13.5938C12.6562 14.8882 13.7056 15.9375 15 15.9375Z" stroke="#332927" stroke-width="1.4" stroke-miterlimit="10" stroke-linecap="round" stroke-linejoin="round"/>
<path d="M11.25 19.6875H18.75V29.0625H11.25V19.6875ZM15 2.34375L1.14189 13.4302C1.11593 13.4509 1.09469 13.477 1.07958 13.5066C1.06446 13.5362 1.05582 13.5687 1.05423 13.6019C1.05263 13.6351 1.05812 13.6683 1.07032 13.6992C1.08252 13.7301 1.10117 13.7581 1.12501 13.7812L2.66579 15.322C2.70674 15.363 2.76139 15.3873 2.81921 15.3903C2.87702 15.3933 2.93391 15.3749 2.97892 15.3384L15 5.625L27.0235 15.3366C27.0685 15.373 27.1253 15.3915 27.1832 15.3884C27.241 15.3854 27.2956 15.3611 27.3366 15.3202L28.8774 13.7812C28.9007 13.7579 28.9188 13.73 28.9306 13.6992C28.9424 13.6684 28.9475 13.6355 28.9457 13.6026C28.9439 13.5697 28.9351 13.5375 28.9201 13.5082C28.905 13.4789 28.8839 13.4531 28.8581 13.4325L15 2.34375Z" stroke="#332927" stroke-width="1.4" stroke-miterlimit="10" stroke-linecap="round" stroke-linejoin="round"/>
</svg>
