<svg width="30" height="30" viewBox="0 0 30 30" fill="none" xmlns="http://www.w3.org/2000/svg">
<path d="M13.4063 8.01564C13.226 7.73 13.1262 7.40097 13.1175 7.06331C13.1088 6.72565 13.1914 6.39191 13.3567 6.09734C13.522 5.80278 13.7638 5.55833 14.0565 5.38984C14.3493 5.22135 14.6821 5.13506 15.0198 5.1401C15.3576 5.14514 15.6877 5.24132 15.9753 5.41848C16.2628 5.59563 16.4972 5.84718 16.6537 6.14655C16.8101 6.44592 16.8827 6.78198 16.8639 7.11923C16.8451 7.45648 16.7356 7.78239 16.5469 8.06252M2.8125 21.0938V20.1563C2.8125 16.9239 4.09654 13.824 6.38214 11.5384C8.66774 9.2528 11.7677 7.96877 15 7.96877C18.2323 7.96877 21.3323 9.2528 23.6179 11.5384C25.9035 13.824 27.1875 16.9239 27.1875 20.1563V21.0938H2.8125Z" stroke="#332927" stroke-width="1.4" stroke-linecap="round" stroke-linejoin="round"/>
<path d="M28.125 21.0938L27.1875 23.4375C27.0669 23.8419 26.8196 24.1968 26.4821 24.45C26.1445 24.7032 25.7345 24.8412 25.3125 24.8438H4.6875C3.89062 24.8438 3.1875 24.2344 2.8125 23.4375L1.875 21.0938M0.9375 21.0938H29.0625H0.9375Z" stroke="#332927" stroke-width="1.4" stroke-linecap="round" stroke-linejoin="round"/>
</svg>
