<svg width="30" height="30" viewBox="0 0 30 30" fill="none" xmlns="http://www.w3.org/2000/svg">
<path d="M27.5156 19.6875C27.6574 20.2413 27.6707 20.8202 27.5545 21.3799C27.4383 21.9397 27.1957 22.4654 26.8451 22.917C26.4946 23.3686 26.0454 23.7341 25.532 23.9855C25.0186 24.2369 24.4545 24.3676 23.8828 24.3676C23.3111 24.3676 22.747 24.2369 22.2336 23.9855C21.7202 23.7341 21.271 23.3686 20.9205 22.917C20.57 22.4654 20.3273 21.9397 20.2111 21.3799C20.0949 20.8202 20.1082 20.2413 20.25 19.6875M10.3125 20.625C10.3125 21.6196 9.91741 22.5734 9.21415 23.2766C8.51089 23.9799 7.55706 24.375 6.5625 24.375C5.56794 24.375 4.61411 23.9799 3.91085 23.2766C3.20759 22.5734 2.8125 21.6196 2.8125 20.625H10.3125Z" stroke="#332927" stroke-width="1.4" stroke-linecap="round" stroke-linejoin="round"/>
<path d="M17.8125 4.6875H19.6875C20.2031 4.6875 21.5625 5.25 21.5625 6.5625V15.0938C21.5625 16.5938 20.2031 20.0156 15.8906 20.0156" stroke="#332927" stroke-width="1.4" stroke-linecap="round" stroke-linejoin="round"/>
<path d="M21.5625 15H24.375C28.9219 15 29.0625 19.6875 29.0625 19.6875H18.0469L21.5625 15ZM7.5 14.0625C5.75952 14.0625 4.09032 14.7539 2.85961 15.9846C1.6289 17.2153 0.9375 18.8845 0.9375 20.625H15.9375C15.9375 18.8845 15.2461 17.2153 14.0154 15.9846C12.7847 14.7539 11.1155 14.0625 9.375 14.0625H7.5Z" stroke="#332927" stroke-width="1.4" stroke-linecap="round" stroke-linejoin="round"/>
<path d="M23.9062 7.03125V9.84375M11.2031 10.3125H0.9375C1.40625 13.1719 4.17187 14.0625 7.45312 14.0625H9.32812C10.7913 14.1144 12.2479 13.8422 13.5938 13.2656C15.0469 12.4687 15.1875 10.3125 11.2031 10.3125Z" stroke="#332927" stroke-width="1.4" stroke-linecap="round" stroke-linejoin="round"/>
</svg>
