<svg width="41" height="40" viewBox="0 0 41 40" fill="none" xmlns="http://www.w3.org/2000/svg">
<path d="M20.0016 40C31.0481 40 40.0031 31.0457 40.0031 20C40.0031 8.9543 31.0481 0 20.0016 0C8.955 0 0 8.9543 0 20C0 31.0457 8.955 40 20.0016 40Z" fill="#FDD3AE"/>
<path d="M20.0013 36.8924C29.3321 36.8924 36.8962 29.3289 36.8962 19.9989C36.8962 10.6688 29.3321 3.10535 20.0013 3.10535C10.6705 3.10535 3.10645 10.6688 3.10645 19.9989C3.10645 29.3289 10.6705 36.8924 20.0013 36.8924Z" fill="#F2BE61"/>
<path d="M20.0022 36.908C19.8975 36.908 19.8276 36.839 19.8276 36.7355V3.33706C19.8276 3.23356 19.8975 3.16455 20.0022 3.16455C20.1069 3.16455 20.1767 3.23356 20.1767 3.33706V36.7355C20.1767 36.839 20.1069 36.908 20.0022 36.908Z" fill="#EB9673"/>
<path d="M36.6628 20.238H3.26473C3.16112 20.238 3.09204 20.1574 3.09204 20.0364C3.09204 19.9154 3.16112 19.8347 3.26473 19.8347H36.6628C36.7664 19.8347 36.8355 19.9154 36.8355 20.0364C36.8355 20.1574 36.7664 20.238 36.6628 20.238Z" fill="#EB9673"/>
<path d="M14.1027 12.7385C13.4046 11.9008 12.1479 11.7961 11.3102 12.4941C10.1233 13.4365 10.0535 14.728 10.7516 15.5657C11.4498 16.4034 12.9159 16.1591 13.8584 15.5657C14.6961 14.8327 14.8008 13.6111 14.1027 12.7385Z" fill="#DC664A"/>
<path d="M31.3109 27.3648C30.6128 26.5271 29.3562 26.4224 28.5184 27.1205C27.3316 28.0629 27.2618 29.3543 27.9599 30.192C28.658 31.0297 30.1241 30.7854 31.0666 30.192C31.9044 29.459 32.0091 28.2025 31.3109 27.3648Z" fill="#DC664A"/>
<path d="M28.3437 8.20233C27.6455 7.36464 26.3889 7.25992 25.5511 7.958C24.3643 8.90041 24.2945 10.1919 24.9926 11.0296C25.6908 11.8673 27.1568 11.6229 28.0993 11.0296C28.9371 10.2966 29.0418 9.04003 28.3437 8.20233Z" fill="#DC664A"/>
<path d="M15.079 24.0156C14.3809 23.1779 13.1242 23.0732 12.2865 23.7712C11.0996 24.7136 11.0298 26.0051 11.728 26.8428C12.4261 27.6805 13.8922 27.4362 14.8347 26.8428C15.6724 26.1098 15.7771 24.8882 15.079 24.0156Z" fill="#DC664A"/>
<path d="M27.4015 23.838C23.5617 23.2097 24.0853 26.9444 24.0853 26.9444C24.0853 26.9444 27.7854 27.7123 27.4015 23.838Z" fill="#DD8D00"/>
<path d="M16.5809 10.611C17.2093 6.7716 13.4742 7.29516 13.4742 7.29516C13.4742 7.29516 12.7063 10.995 16.5809 10.611Z" fill="#DD8D00"/>
<path d="M29.0772 14.694C25.2375 14.0658 25.7611 17.8005 25.7611 17.8005C25.7611 17.8005 29.4961 18.5684 29.0772 14.694Z" fill="#DD8D00"/>
<path d="M6.28271 25.1659C8.44693 26.4573 9.00544 24.049 9.00544 24.049C9.00544 24.049 6.94594 22.7575 6.28271 25.1659Z" fill="#DD8D00"/>
</svg>
