<svg width="57" height="56" viewBox="0 0 57 56" fill="none" xmlns="http://www.w3.org/2000/svg">
<path d="M28.0022 56C43.4674 56 56.0044 43.464 56.0044 28C56.0044 12.536 43.4674 0 28.0022 0C12.537 0 0 12.536 0 28C0 43.464 12.537 56 28.0022 56Z" fill="#FDD3AE"/>
<path fill-rule="evenodd" clip-rule="evenodd" d="M28.0035 28.1642L53.4311 28.3957C53.4311 28.3443 53.4311 28.1385 53.4311 28.0613C53.4311 14.0929 42.1264 2.77026 28.1541 2.77026C28.1541 2.77026 28.0314 2.77026 28.0057 2.77026L28.0035 28.1642Z" fill="#DC664A"/>
<path fill-rule="evenodd" clip-rule="evenodd" d="M28.0027 28.198V53.2182C28.0541 53.2182 28.1054 53.2182 28.1825 53.2182C42.1322 53.2182 53.4616 42.3778 53.4616 28.4035C53.4616 28.3778 53.4616 28.3778 53.4616 28.3521L28.0027 28.198Z" fill="#FFA400"/>
<path fill-rule="evenodd" clip-rule="evenodd" d="M28.0016 28.1284L2.85095 28.2568C2.85095 28.2054 2.85095 28.1541 2.85095 28.077C2.85095 14.1284 13.8799 2.79993 27.8553 2.79993C28.0223 2.79993 27.9467 2.79993 28.0532 2.79993L28.0016 28.1284Z" fill="#F2BE61"/>
<path fill-rule="evenodd" clip-rule="evenodd" d="M28.0016 28.1276L28.2842 53.2249C28.2328 53.2249 28.1814 53.2249 28.1043 53.2249C14.1546 53.2249 2.82532 41.7166 2.82532 27.7423C2.82532 27.7166 2.82532 27.7166 2.82532 27.6909L28.0016 28.1276Z" fill="#CE5715"/>
<path d="M11.3294 15.464C10.8413 14.8731 9.9678 14.7961 9.40262 15.2841C8.58053 15.952 8.52915 16.8254 9.01727 17.3906C9.50538 17.9557 10.5073 17.8016 11.1752 17.3906C11.7404 16.9025 11.8175 16.0291 11.3294 15.464Z" fill="#DC664A"/>
<path d="M14.1035 24.2757C13.6154 23.6849 12.742 23.6078 12.1768 24.0959C11.3547 24.7638 11.3033 25.6372 11.7914 26.2023C12.2795 26.7931 13.2815 26.6133 13.9494 26.2023C14.5146 25.7399 14.5917 24.8666 14.1035 24.2757Z" fill="#DC664A"/>
<path d="M12.8456 18.162C11.9979 20.14 14.0788 20.3455 14.0788 20.3455C14.0788 20.3455 14.9779 18.4702 12.8456 18.162Z" fill="#DD8D00"/>
<path d="M8.06708 23.7351C7.2193 25.7131 9.3002 25.9186 9.3002 25.9186C9.3002 25.9186 10.1994 24.0434 8.06708 23.7351Z" fill="#DD8D00"/>
<path d="M19.7817 14.7177C18.4201 17.0809 21.0148 17.6461 21.0148 17.6461C21.0148 17.6461 22.4278 15.4112 19.7817 14.7177Z" fill="#DD8D00"/>
<path d="M36.5118 41.1591C35.1502 43.5224 37.7449 44.0875 37.7449 44.0875C37.7449 44.0875 39.1579 41.8526 36.5118 41.1591Z" fill="#CE5715"/>
<path d="M39.3818 33.626C37.7121 34.5103 39.0257 35.7981 39.0257 35.7981C39.0257 35.7981 40.6781 35.0081 39.3818 33.626Z" fill="#CE5715"/>
<path d="M43.6843 36.9045C41.1312 41.2961 45.9966 42.3462 45.9966 42.3462C45.9966 42.3462 48.6461 38.1934 43.6843 36.9045Z" fill="#CE5715"/>
<path d="M30.5254 44.9187C27.9722 49.3102 32.8376 50.3604 32.8376 50.3604C32.8376 50.3604 35.4871 46.2075 30.5254 44.9187Z" fill="#CE5715"/>
<path d="M23.7383 5.00879C22.3768 7.37209 24.9715 7.93723 24.9715 7.93723C24.9715 7.93723 26.3844 5.67668 23.7383 5.00879Z" fill="#DD8D00"/>
<path d="M17.316 24.197C16.3912 25.7897 18.1381 26.175 18.1381 26.175C18.1381 26.175 19.0886 24.6594 17.316 24.197Z" fill="#DD8D00"/>
<path d="M18.1878 10.0963C17.6997 9.50546 16.8262 9.4284 16.261 9.91647C15.4389 10.5844 15.3876 11.4578 15.8757 12.0229C16.3638 12.6137 17.3657 12.4339 18.0336 12.0229C18.5988 11.5605 18.6759 10.6871 18.1878 10.0963Z" fill="#DC664A"/>
<path d="M25.8961 10.2224C25.408 9.63156 24.5346 9.5545 23.9694 10.0426C23.1473 10.7105 23.0959 11.5839 23.584 12.149C24.0722 12.7141 25.0741 12.56 25.742 12.149C26.3072 11.6609 26.3843 10.8132 25.8961 10.2224Z" fill="#DC664A"/>
<path d="M49.9667 25.3811C49.5556 25.7407 48.8877 25.0729 49.4015 24.5591C49.6327 24.3279 49.6327 24.1224 49.3501 23.7884C49.0418 23.4288 48.9648 23.5059 48.6565 23.66C48.1427 23.8912 47.5261 23.2233 47.9372 22.8894C48.6308 22.3242 49.6584 22.427 50.2236 23.1206C50.7374 23.7884 50.6603 24.816 49.9667 25.3811Z" fill="#F2BE61"/>
<path d="M49.2732 23.4301L48.0915 24.3291C47.9374 24.4319 47.9374 24.6374 48.0401 24.7915L48.2456 25.0227C48.3741 25.1512 48.5796 25.1512 48.7081 25.0227L49.6843 23.9695L49.2732 23.4301Z" fill="#F2BE61"/>
<path d="M33.3976 9.62885C33.0707 10.34 31.8059 9.85792 32.1768 8.88497C32.3437 8.44714 32.2233 8.17838 31.658 7.90722C31.0441 7.61752 30.9885 7.76346 30.6757 8.14566C30.1392 8.74907 28.9415 8.23687 29.2834 7.55929C29.8594 6.41377 31.2635 5.94604 32.409 6.52195C33.5059 7.07932 33.9736 8.48334 33.3976 9.62885Z" fill="#F2BE61"/>
<path d="M31.3942 7.50088L30.3755 9.36914C30.2342 9.59384 30.3546 9.8626 30.5793 10.004L30.9835 10.1859C31.2268 10.2786 31.4955 10.1582 31.5883 9.91494L32.2328 7.93195L31.3942 7.50088Z" fill="#F2BE61"/>
<path d="M36.274 16.3125C36.0171 16.5437 35.606 16.1584 35.8886 15.8244C36.0171 15.6703 36.0171 15.5676 35.8372 15.3621C35.6317 15.1566 35.5803 15.2079 35.4005 15.3107C35.0922 15.4648 34.6812 15.0795 34.9381 14.8483C35.3491 14.4887 35.9657 14.5144 36.351 14.9254C36.685 15.3107 36.6593 15.9272 36.274 16.3125Z" fill="#F2BE61"/>
<path d="M35.7857 15.1293L35.0921 15.7201C35.015 15.7972 34.9893 15.9256 35.0921 16.0027L35.2205 16.1311C35.2976 16.2082 35.426 16.2082 35.5031 16.1311L36.0683 15.4632L35.7857 15.1293Z" fill="#F2BE61"/>
<path d="M41.6431 26.7152C41.3862 26.9464 40.9752 26.5611 41.2578 26.2272C41.3862 26.073 41.3862 25.9703 41.2064 25.7648C41.0008 25.5593 40.9495 25.6106 40.7696 25.7134C40.4614 25.8675 40.0503 25.4822 40.3072 25.251C40.7183 24.8914 41.3348 24.9171 41.7202 25.3281C42.0798 25.7391 42.0541 26.3556 41.6431 26.7152Z" fill="#F2BE61"/>
<path d="M41.1806 25.5586L40.487 26.1494C40.4099 26.2265 40.3842 26.3549 40.487 26.432L40.6154 26.5604C40.6925 26.6375 40.8209 26.6375 40.898 26.5604L41.4632 25.8925L41.1806 25.5586Z" fill="#F2BE61"/>
<path d="M40.6931 9.78637C41.0528 10.1974 40.4362 10.8653 39.8967 10.4029C39.6655 10.1717 39.46 10.1974 39.126 10.5056C38.7663 10.8139 38.8691 10.9166 39.0232 11.2249C39.2801 11.713 38.6379 12.3809 38.2782 11.9955C37.6874 11.3277 37.713 10.3001 38.381 9.7093C39.0489 9.0671 40.0765 9.11848 40.6931 9.78637Z" fill="#F2BE61"/>
<path d="M38.7922 10.556L39.7428 11.6863C39.8455 11.8147 40.0767 11.8404 40.2052 11.712L40.4364 11.4808C40.5649 11.3523 40.5648 11.1468 40.4107 11.0184L39.306 10.0936L38.7922 10.556Z" fill="#F2BE61"/>
<path d="M45.2346 16.172C45.8011 16.8193 44.83 17.8712 43.9803 17.143C43.6162 16.7788 43.2925 16.8193 42.7665 17.3048C42.2001 17.7903 42.3619 17.9521 42.6047 18.4376C43.0093 19.2063 41.9978 20.2582 41.4313 19.6513C40.5007 18.5994 40.5412 16.9811 41.5932 16.0506C42.6451 15.0392 44.2636 15.1201 45.2346 16.172Z" fill="#F2BE61"/>
<path d="M42.2408 17.3857L43.7379 19.1658C43.8997 19.3681 44.2638 19.4086 44.4661 19.2063L44.8303 18.8422C45.0326 18.6399 45.0326 18.3162 44.7898 18.1139L43.05 16.6575L42.2408 17.3857Z" fill="#F2BE61"/>
<path d="M2.77393 27.7324C2.77393 27.6554 2.82531 27.604 2.90238 27.604L53.4604 28.1948C53.5375 28.1948 53.5889 28.2462 53.5889 28.3233C53.5889 28.4003 53.5375 28.4517 53.4604 28.4517L2.90238 27.8609C2.82531 27.8609 2.77393 27.7838 2.77393 27.7324Z" fill="#E48161"/>
<path d="M28.1826 53.1976C28.1055 53.198 28.0539 53.1469 28.0535 53.0698L27.8063 2.90163C27.8059 2.82457 27.857 2.77294 27.9341 2.77256C28.0112 2.77218 28.0628 2.8233 28.0632 2.90037L28.3104 53.0686C28.3108 53.1456 28.2339 53.1974 28.1826 53.1976Z" fill="#E48161"/>
<path d="M10.2431 10.0924C10.2945 10.041 10.3716 10.041 10.423 10.0924L46.0808 45.7474C46.1321 45.7988 46.1321 45.8759 46.0808 45.9272C46.0294 45.9786 45.9523 45.9786 45.9009 45.9272L10.2431 10.2722C10.1917 10.2208 10.1917 10.1437 10.2431 10.0924Z" fill="#E48161"/>
<path d="M10.1987 45.7783C10.1473 45.727 10.1473 45.6499 10.1987 45.5985L45.7024 10.0976C45.7537 10.0462 45.8308 10.0462 45.8822 10.0976C45.9336 10.149 45.9336 10.2261 45.8822 10.2774L10.3785 45.7783C10.3528 45.8297 10.2501 45.8297 10.1987 45.7783Z" fill="#E48161"/>
<path d="M37.6859 51.2224C37.6088 51.2481 37.5574 51.2224 37.506 51.1454L18.3155 4.80407C18.2898 4.72701 18.3156 4.67563 18.3926 4.62426C18.4697 4.59857 18.5211 4.62426 18.5724 4.70132L37.7886 51.0683C37.7886 51.1197 37.7629 51.1967 37.6859 51.2224Z" fill="#E48161"/>
<path d="M4.80671 18.3848C4.8324 18.3077 4.90947 18.282 4.98654 18.3077L51.3571 37.4967C51.4342 37.5224 51.4599 37.5995 51.4342 37.6765C51.4085 37.7536 51.3314 37.7793 51.2544 37.7536L4.85809 18.5389C4.80671 18.5132 4.78102 18.4362 4.80671 18.3848Z" fill="#E48161"/>
<path d="M4.86176 37.6821C4.88745 37.7592 4.96453 37.7849 5.0416 37.7592L51.4122 18.5702C51.4892 18.5445 51.5149 18.4675 51.4892 18.3904C51.4635 18.3133 51.3865 18.2877 51.3094 18.3133L4.91315 37.5023C4.86177 37.5537 4.83607 37.6051 4.86176 37.6821Z" fill="#E48161"/>
<path d="M18.3942 51.2835C18.3171 51.2578 18.2914 51.1808 18.3171 51.1037L37.5076 4.73672C37.5333 4.65966 37.6104 4.63397 37.6874 4.65966C37.7645 4.68535 37.7902 4.76241 37.7645 4.83947L18.574 51.2065C18.5226 51.2835 18.4456 51.3092 18.3942 51.2835Z" fill="#E48161"/>
<path d="M50.6889 30.6669C46.7339 27.3736 44.8467 32.0155 44.8467 32.0155C44.8467 32.0155 48.5464 35.363 50.6889 30.6669Z" fill="#CE5715"/>
<path d="M13.5903 29.1873C12.0965 29.1873 12.0965 31.5618 13.5903 31.5618C15.1307 31.5618 15.1307 29.1873 13.5903 29.1873Z" fill="#F2BE61"/>
<g clip-path="url(#clip0)">
<path d="M26.4733 37.4764C26.0164 37.4764 26.0164 38.1888 26.4733 38.1888C26.9301 38.1888 26.9301 37.4764 26.4733 37.4764Z" fill="#F2BE61"/>
<path d="M16.9377 46.4095C16.4809 46.4095 16.4809 47.1219 16.9377 47.1219C17.3946 47.1219 17.3946 46.4095 16.9377 46.4095Z" fill="#F2BE61"/>
<path d="M20.1356 29.7249C19.6788 29.7249 19.6788 30.4372 20.1356 30.4372C20.6067 30.4372 20.6067 29.7249 20.1356 29.7249Z" fill="#F2BE61"/>
<path d="M10.2274 33.4165C9.77055 33.4165 9.77055 34.1288 10.2274 34.1288C10.6843 34.1288 10.6843 33.4165 10.2274 33.4165Z" fill="#F2BE61"/>
<path d="M18.4523 34.1343C17.9954 34.1343 17.9954 34.8466 18.4523 34.8466C18.9091 34.8466 18.9091 34.1343 18.4523 34.1343Z" fill="#F2BE61"/>
<path d="M15.4803 41.5364C15.0235 41.5364 15.0235 42.2487 15.4803 42.2487C15.9372 42.2487 15.9372 41.5364 15.4803 41.5364Z" fill="#F2BE61"/>
<path d="M23.3616 44.6293C22.9047 44.6293 22.9047 45.3416 23.3616 45.3416C23.8327 45.3416 23.8327 44.6293 23.3616 44.6293Z" fill="#F2BE61"/>
<path d="M25.2826 48.7775C23.6336 48.7775 23.6336 51.251 25.2826 51.251C26.9316 51.251 26.9316 48.7775 25.2826 48.7775Z" fill="#F2BE61"/>
<path d="M22.5999 35.5194C21.6257 35.5194 21.6257 37.1024 22.5999 37.1024C23.6045 37.1024 23.6045 35.5194 22.5999 35.5194Z" fill="#F2BE61"/>
<path d="M11.7104 37.4983C10.2167 37.4983 10.2167 39.8728 11.7104 39.8728C13.2508 39.8728 13.2508 37.4983 11.7104 37.4983Z" fill="#F2BE61"/>
<path d="M5.88683 29.4841C5.42998 29.4841 5.42998 30.1965 5.88683 30.1965C6.34368 30.1965 6.34368 29.4841 5.88683 29.4841Z" fill="#F2BE61"/>
</g>
<defs>
<clipPath id="clip0">
<rect x="5.54419" y="29.4841" width="21.2721" height="23.2509" fill="white"/>
</clipPath>
</defs>
</svg>
