<svg width="49" height="48" viewBox="0 0 49 48" fill="none" xmlns="http://www.w3.org/2000/svg">
<path d="M24.0019 48C37.2577 48 48.0037 37.2548 48.0037 24C48.0037 10.7452 37.2577 0 24.0019 0C10.746 0 0 10.7452 0 24C0 37.2548 10.746 48 24.0019 48Z" fill="#FDD3AE"/>
<path d="M24.0013 44.462C35.3025 44.462 44.464 35.3013 44.464 24.0009C44.464 12.7006 35.3025 3.53979 24.0013 3.53979C12.7 3.53979 3.53857 12.7006 3.53857 24.0009C3.53857 35.3013 12.7 44.462 24.0013 44.462Z" fill="#F2BE61"/>
<path fill-rule="evenodd" clip-rule="evenodd" d="M44.593 24.0009C44.593 12.7087 35.4233 3.53979 24.1302 3.53979V44.462C35.4233 44.462 44.593 35.2931 44.593 24.0009Z" fill="#DC664A"/>
<path d="M30.3399 7.59324C30.7903 8.10799 30.0181 8.94445 29.3425 8.36536C29.0529 8.07581 28.7955 8.10798 28.3772 8.49404C27.9268 8.8801 28.0555 9.00879 28.2485 9.39485C28.5703 10.0061 27.7659 10.8426 27.3155 10.36C26.5755 9.52354 26.6077 8.23667 27.4442 7.49672C28.3129 6.69243 29.5999 6.75678 30.3399 7.59324Z" fill="#F2BE61"/>
<path d="M27.9592 8.55748L29.1497 9.97304C29.2784 10.1339 29.5679 10.1661 29.7288 10.0052L30.0184 9.71566C30.1792 9.5548 30.1792 9.29743 29.9862 9.13657L28.6027 7.97839L27.9592 8.55748Z" fill="#F2BE61"/>
<path d="M29.6964 15.3463C29.3747 15.6359 28.8599 15.1533 29.2138 14.7351C29.3747 14.542 29.3747 14.4134 29.1495 14.156C28.8921 13.8986 28.8278 13.963 28.6025 14.0916C28.2164 14.2847 27.7017 13.8021 28.0234 13.5125C28.5382 13.0621 29.3104 13.0943 29.793 13.6091C30.2434 14.1238 30.2112 14.8959 29.6964 15.3463Z" fill="#F2BE61"/>
<path d="M29.1171 13.8979L28.2485 14.6379C28.1519 14.7344 28.1198 14.8953 28.2485 14.9918L28.4093 15.1526C28.5058 15.2492 28.6667 15.2492 28.7632 15.1526L29.4711 14.3162L29.1171 13.8979Z" fill="#F2BE61"/>
<path d="M39.0581 17.5021C39.5086 18.0168 38.7364 18.8533 38.0607 18.2742C37.7712 17.9846 37.5138 18.0168 37.0955 18.4029C36.6451 18.7889 36.7738 18.9176 36.9668 19.3037C37.2885 19.9149 36.4842 20.7514 36.0338 20.2688C35.2938 19.4323 35.3259 18.1455 36.1625 17.4055C37.0312 16.6012 38.3181 16.6656 39.0581 17.5021Z" fill="#F2BE61"/>
<path d="M36.6775 18.4663L37.8679 19.8818C37.9966 20.0427 38.2862 20.0749 38.4471 19.914L38.7366 19.6245C38.8975 19.4636 38.8975 19.2062 38.7045 19.0454L37.321 17.8872L36.6775 18.4663Z" fill="#F2BE61"/>
<path d="M28.8913 34.908C29.3417 35.4228 28.5695 36.2592 27.8939 35.6802C27.6043 35.3906 27.3469 35.4228 26.9286 35.8088C26.4782 36.1949 26.6069 36.3236 26.7999 36.7096C27.1217 37.3209 26.3173 38.1574 25.8669 37.6748C25.1269 36.8383 25.1591 35.5515 25.9956 34.8115C26.8321 34.0394 28.1191 34.1037 28.8913 34.908Z" fill="#F2BE61"/>
<path d="M26.5106 35.8745L27.7011 37.29C27.8297 37.4509 28.1193 37.4831 28.2802 37.3222L28.5697 37.0327C28.7306 36.8718 28.7306 36.6144 28.5376 36.4536L27.1541 35.2954L26.5106 35.8745Z" fill="#F2BE61"/>
<path d="M39.735 29.5028C40.1854 30.0175 39.4133 30.854 38.7376 30.2749C38.448 29.9854 38.1907 30.0175 37.7724 30.4036C37.322 30.7896 37.4506 30.9183 37.6437 31.3044C37.9654 31.9156 37.1611 32.7521 36.7106 32.2695C35.9706 31.4331 36.0028 30.1462 36.8393 29.4063C37.708 28.602 38.995 28.6663 39.735 29.5028Z" fill="#F2BE61"/>
<path d="M37.3544 30.467L38.5448 31.8826C38.6735 32.0434 38.9631 32.0756 39.1239 31.9148L39.4135 31.6252C39.5744 31.4644 39.5744 31.207 39.3813 31.0461L37.9979 29.8879L37.3544 30.467Z" fill="#F2BE61"/>
<path d="M33.8462 27.6051C33.5245 27.8947 33.0097 27.4121 33.3636 26.9939C33.5245 26.8008 33.5245 26.6721 33.2993 26.4148C33.0419 26.1574 32.9775 26.2217 32.7523 26.3504C32.3662 26.5435 31.8514 26.0609 32.1732 25.7713C32.688 25.3209 33.4601 25.3531 33.9428 25.8679C34.3932 26.3504 34.361 27.1547 33.8462 27.6051Z" fill="#F2BE61"/>
<path d="M33.2347 26.1567L32.366 26.8967C32.2695 26.9932 32.2373 27.1541 32.366 27.2506L32.5269 27.4114C32.6234 27.5079 32.7843 27.5079 32.8808 27.4114L33.5886 26.575L33.2347 26.1567Z" fill="#F2BE61"/>
<path d="M24.1307 44.4622C24.0342 44.4622 23.9698 44.3978 23.9698 44.3013V3.82944C23.9698 3.73292 24.0342 3.66858 24.1307 3.66858C24.2272 3.66858 24.2916 3.73292 24.2916 3.82944V44.3013C24.2916 44.3978 24.2272 44.4622 24.1307 44.4622Z" fill="#EB9673"/>
<path d="M3.76489 24.0631C3.76489 23.9666 3.82924 23.9022 3.92576 23.9022H44.4008C44.4973 23.9022 44.5616 23.9666 44.5616 24.0631C44.5616 24.1596 44.4973 24.2239 44.4008 24.2239H3.92576C3.82924 24.2239 3.76489 24.1596 3.76489 24.0631Z" fill="#EB9673"/>
<path d="M9.71696 38.477C9.65261 38.4127 9.65261 38.3162 9.71696 38.2518L38.3197 9.65128C38.3841 9.58694 38.4806 9.58694 38.5449 9.65128C38.6093 9.71563 38.6093 9.81214 38.5449 9.87648L9.94218 38.477C9.87783 38.5414 9.78131 38.5414 9.71696 38.477Z" fill="#EB9673"/>
<path d="M9.71696 9.65128C9.78131 9.58694 9.87783 9.58694 9.94218 9.65128L38.5449 38.2518C38.6093 38.3162 38.6093 38.4127 38.5449 38.477C38.4806 38.5414 38.3841 38.5414 38.3197 38.477L9.71696 9.87648C9.65261 9.81214 9.65261 9.71563 9.71696 9.65128Z" fill="#EB9673"/>
<path d="M13.1911 19.1743C12.5476 18.4022 11.3893 18.3057 10.6171 18.9491C9.52323 19.8178 9.45888 21.0081 10.1024 21.7802C10.7458 22.5523 12.0971 22.3271 12.9658 21.7802C13.738 21.1046 13.8345 19.9464 13.1911 19.1743Z" fill="#DC664A"/>
<path d="M20.9132 9.74805C20.2698 8.97593 19.1115 8.87942 18.3393 9.52285C17.2454 10.3915 17.181 11.5818 17.8245 12.3539C18.468 13.1261 19.8193 12.9009 20.688 12.3539C21.4602 11.6783 21.5567 10.5202 20.9132 9.74805Z" fill="#DC664A"/>
<path d="M13.1911 28.7623C12.5476 27.9902 11.3893 27.8937 10.6171 28.5371C9.52323 29.4058 9.45888 30.5961 10.1024 31.3682C10.7458 32.1404 12.0971 31.9152 12.9658 31.3682C13.738 30.6926 13.8345 29.5345 13.1911 28.7623Z" fill="#DC664A"/>
<path d="M20.9132 36.5161C20.2698 35.744 19.1115 35.6475 18.3393 36.2909C17.2454 37.1596 17.181 38.3499 17.8245 39.122C18.468 39.8941 19.8193 39.6689 20.688 39.122C21.4602 38.4464 21.5567 37.3204 20.9132 36.5161Z" fill="#DC664A"/>
<path d="M12.3556 15.0242C9.91038 12.3862 8.17297 15.4425 8.17297 15.4425C8.17297 15.4425 10.4573 18.0806 12.3556 15.0242Z" fill="#DD8D00"/>
<path d="M22.4571 14.479C18.918 13.8999 19.4006 17.3423 19.4006 17.3423C19.4006 17.3423 22.811 18.05 22.4571 14.479Z" fill="#DD8D00"/>
<path d="M18.8864 25.2241C15.3473 24.645 15.8299 28.0874 15.8299 28.0874C15.8299 28.0874 19.2404 28.7951 18.8864 25.2241Z" fill="#DD8D00"/>
</svg>
