<svg width="100" height="100" viewBox="0 0 100 100" fill="none" xmlns="http://www.w3.org/2000/svg">
<path d="M78.125 69.6875H52.6719C50.9084 73.8221 49.9996 78.2707 50 82.7656C50.0043 78.2703 49.0953 73.8209 47.3281 69.6875H21.875L10.625 92.1875H89.375L78.125 69.6875Z" fill="white"/>
<path d="M50 7.8125C44.0327 7.8125 38.3097 10.183 34.0901 14.4026C29.8706 18.6222 27.5 24.3451 27.5 30.3125C27.487 31.252 27.534 32.1914 27.6407 33.125C29.1875 47.1875 41.5625 56.3281 47.1875 69.6875C49.003 73.8108 49.96 78.2605 50 82.7656C49.9996 78.2707 50.9085 73.8221 52.6719 69.6875C58.2969 56.3281 70.6719 47.1875 72.2188 33.125C72.3262 32.1915 72.3732 31.2521 72.3594 30.3125C72.3595 24.3694 70.0083 18.6677 65.8191 14.4521C61.6299 10.2366 55.943 7.84964 50 7.8125ZM50 35.9375C48.8875 35.9375 47.8 35.6076 46.875 34.9895C45.9499 34.3714 45.229 33.4929 44.8032 32.4651C44.3775 31.4373 44.2661 30.3063 44.4831 29.2151C44.7002 28.124 45.2359 27.1217 46.0226 26.335C46.8092 25.5484 47.8115 25.0126 48.9027 24.7956C49.9938 24.5785 51.1248 24.6899 52.1526 25.1157C53.1805 25.5414 54.059 26.2624 54.6771 27.1874C55.2951 28.1124 55.625 29.2 55.625 30.3125C55.625 31.8043 55.0324 33.2351 53.9775 34.29C52.9226 35.3449 51.4919 35.9375 50 35.9375Z" fill="#F26161"/>
<path opacity="0.2" d="M50 81.5001C50 58.7189 34.25 47.8907 32.7032 28.4845C32.5625 27.5001 32.5625 26.5157 32.5625 25.5314C32.5364 21.4849 33.3007 17.4723 34.8125 13.7189C32.5023 15.8207 30.6581 18.3831 29.3986 21.2412C28.1391 24.0992 27.4924 27.1894 27.5 30.3126C27.487 31.2522 27.534 32.1916 27.6407 33.1251C29.6094 51.2657 50 61.3907 50 82.7657V81.5001Z" fill="#000032"/>
<path opacity="0.2" d="M47.3281 69.6875H21.875L19.3438 74.75C40.0156 76.4375 49.8594 82.7656 50 82.9062C50.0235 78.3636 49.1141 73.8644 47.3281 69.6875Z" fill="#000032"/>
<path d="M50 82.7656C50 61.3906 70.3907 51.2656 72.3594 33.125C72.4665 32.1915 72.5134 31.252 72.5 30.3125C72.5 24.3451 70.1295 18.6222 65.9099 14.4026C61.6904 10.183 55.9674 7.8125 50 7.8125C44.0327 7.8125 38.3097 10.183 34.0901 14.4026C29.8706 18.6222 27.5 24.3451 27.5 30.3125C27.487 31.252 27.534 32.1914 27.6407 33.125C29.6094 51.2656 50 61.3906 50 82.7656Z" stroke="#2E4369" stroke-width="2" stroke-linecap="round" stroke-linejoin="round"/>
<path d="M50 35.9375C53.1066 35.9375 55.625 33.4191 55.625 30.3125C55.625 27.2059 53.1066 24.6875 50 24.6875C46.8934 24.6875 44.375 27.2059 44.375 30.3125C44.375 33.4191 46.8934 35.9375 50 35.9375Z" stroke="#2E4369" stroke-width="2" stroke-linecap="round" stroke-linejoin="round"/>
<path d="M52.6719 69.6875H78.125L89.375 92.1875H10.625L21.875 69.6875H47.1875" stroke="#2E4369" stroke-width="2" stroke-linecap="round" stroke-linejoin="round"/>
</svg>
